<mxfile host="app.diagrams.net" modified="2024-01-23T18:38:22.338Z" agent="Mozilla/5.0 (Windows NT 10.0; Win64; x64) AppleWebKit/537.36 (KHTML, like Gecko) Chrome/120.0.0.0 Safari/537.36" etag="yXSnJXB6JOQyFM9A-led" version="22.1.21" type="github">
  <diagram id="C5RBs43oDa-KdzZeNtuy" name="Page-1">
    <mxGraphModel dx="1434" dy="772" grid="1" gridSize="10" guides="1" tooltips="1" connect="1" arrows="1" fold="1" page="1" pageScale="1" pageWidth="827" pageHeight="1169" math="0" shadow="0">
      <root>
        <mxCell id="WIyWlLk6GJQsqaUBKTNV-0" />
        <mxCell id="WIyWlLk6GJQsqaUBKTNV-1" parent="WIyWlLk6GJQsqaUBKTNV-0" />
        <mxCell id="KoWsG1J0fxgt0dFN-7at-6" value="" style="edgeStyle=orthogonalEdgeStyle;rounded=0;orthogonalLoop=1;jettySize=auto;html=1;" edge="1" parent="WIyWlLk6GJQsqaUBKTNV-1" target="KoWsG1J0fxgt0dFN-7at-3">
          <mxGeometry relative="1" as="geometry">
            <mxPoint x="170" y="140" as="sourcePoint" />
          </mxGeometry>
        </mxCell>
        <mxCell id="WIyWlLk6GJQsqaUBKTNV-3" value="New Good&amp;nbsp;&lt;br&gt;White Label" style="rounded=1;whiteSpace=wrap;html=1;fontSize=12;glass=0;strokeWidth=1;shadow=0;" parent="WIyWlLk6GJQsqaUBKTNV-1" vertex="1">
          <mxGeometry x="50" y="120" width="120" height="40" as="geometry" />
        </mxCell>
        <mxCell id="KoWsG1J0fxgt0dFN-7at-10" value="" style="edgeStyle=orthogonalEdgeStyle;rounded=0;orthogonalLoop=1;jettySize=auto;html=1;" edge="1" parent="WIyWlLk6GJQsqaUBKTNV-1" source="KoWsG1J0fxgt0dFN-7at-3" target="KoWsG1J0fxgt0dFN-7at-9">
          <mxGeometry relative="1" as="geometry" />
        </mxCell>
        <mxCell id="KoWsG1J0fxgt0dFN-7at-3" value="Recebe New Good caixa parda" style="rounded=1;whiteSpace=wrap;html=1;arcSize=0;" vertex="1" parent="WIyWlLk6GJQsqaUBKTNV-1">
          <mxGeometry x="220" y="115" width="120" height="50" as="geometry" />
        </mxCell>
        <mxCell id="KoWsG1J0fxgt0dFN-7at-13" value="" style="edgeStyle=orthogonalEdgeStyle;rounded=0;orthogonalLoop=1;jettySize=auto;html=1;" edge="1" parent="WIyWlLk6GJQsqaUBKTNV-1" source="KoWsG1J0fxgt0dFN-7at-9" target="KoWsG1J0fxgt0dFN-7at-12">
          <mxGeometry relative="1" as="geometry" />
        </mxCell>
        <mxCell id="KoWsG1J0fxgt0dFN-7at-9" value="Estoque para acondicionamento" style="rounded=1;whiteSpace=wrap;html=1;arcSize=0;" vertex="1" parent="WIyWlLk6GJQsqaUBKTNV-1">
          <mxGeometry x="374" y="115" width="120" height="50" as="geometry" />
        </mxCell>
        <mxCell id="KoWsG1J0fxgt0dFN-7at-25" style="edgeStyle=orthogonalEdgeStyle;rounded=0;orthogonalLoop=1;jettySize=auto;html=1;exitX=1;exitY=0.5;exitDx=0;exitDy=0;entryX=0.5;entryY=0;entryDx=0;entryDy=0;" edge="1" parent="WIyWlLk6GJQsqaUBKTNV-1" source="KoWsG1J0fxgt0dFN-7at-12" target="KoWsG1J0fxgt0dFN-7at-9">
          <mxGeometry relative="1" as="geometry">
            <Array as="points">
              <mxPoint x="696" y="140" />
              <mxPoint x="696" y="70" />
              <mxPoint x="517" y="70" />
              <mxPoint x="517" y="95" />
              <mxPoint x="434" y="95" />
            </Array>
          </mxGeometry>
        </mxCell>
        <mxCell id="KoWsG1J0fxgt0dFN-7at-26" value="NAO" style="edgeLabel;html=1;align=center;verticalAlign=middle;resizable=0;points=[];" vertex="1" connectable="0" parent="KoWsG1J0fxgt0dFN-7at-25">
          <mxGeometry x="0.0176" y="3" relative="1" as="geometry">
            <mxPoint as="offset" />
          </mxGeometry>
        </mxCell>
        <mxCell id="KoWsG1J0fxgt0dFN-7at-53" style="edgeStyle=orthogonalEdgeStyle;rounded=0;orthogonalLoop=1;jettySize=auto;html=1;entryX=1;entryY=0.5;entryDx=0;entryDy=0;" edge="1" parent="WIyWlLk6GJQsqaUBKTNV-1" source="KoWsG1J0fxgt0dFN-7at-12" target="KoWsG1J0fxgt0dFN-7at-15">
          <mxGeometry relative="1" as="geometry">
            <Array as="points">
              <mxPoint x="610" y="310" />
            </Array>
          </mxGeometry>
        </mxCell>
        <mxCell id="KoWsG1J0fxgt0dFN-7at-54" value="SIM" style="edgeLabel;html=1;align=center;verticalAlign=middle;resizable=0;points=[];" vertex="1" connectable="0" parent="KoWsG1J0fxgt0dFN-7at-53">
          <mxGeometry x="-0.4762" relative="1" as="geometry">
            <mxPoint as="offset" />
          </mxGeometry>
        </mxCell>
        <mxCell id="KoWsG1J0fxgt0dFN-7at-12" value="Tem requisição de expedição?" style="rhombus;whiteSpace=wrap;html=1;" vertex="1" parent="WIyWlLk6GJQsqaUBKTNV-1">
          <mxGeometry x="540" y="85" width="136" height="110" as="geometry" />
        </mxCell>
        <mxCell id="KoWsG1J0fxgt0dFN-7at-15" value="Estorno (Altera o status do estoque para&amp;nbsp;&amp;nbsp;Ag.Embalagem)" style="rounded=1;whiteSpace=wrap;html=1;arcSize=0;" vertex="1" parent="WIyWlLk6GJQsqaUBKTNV-1">
          <mxGeometry x="379" y="285" width="120" height="50" as="geometry" />
        </mxCell>
        <mxCell id="KoWsG1J0fxgt0dFN-7at-32" style="edgeStyle=orthogonalEdgeStyle;rounded=0;orthogonalLoop=1;jettySize=auto;html=1;entryX=0;entryY=0.5;entryDx=0;entryDy=0;" edge="1" parent="WIyWlLk6GJQsqaUBKTNV-1" source="KoWsG1J0fxgt0dFN-7at-21">
          <mxGeometry relative="1" as="geometry">
            <mxPoint x="365.5" y="500" as="targetPoint" />
          </mxGeometry>
        </mxCell>
        <mxCell id="KoWsG1J0fxgt0dFN-7at-21" value="Bin&lt;br&gt;Sicredi&lt;br&gt;Caixa" style="shape=parallelogram;perimeter=parallelogramPerimeter;whiteSpace=wrap;html=1;fixedSize=1;" vertex="1" parent="WIyWlLk6GJQsqaUBKTNV-1">
          <mxGeometry x="116.5" y="495" width="200" height="50" as="geometry" />
        </mxCell>
        <mxCell id="KoWsG1J0fxgt0dFN-7at-30" style="edgeStyle=orthogonalEdgeStyle;rounded=0;orthogonalLoop=1;jettySize=auto;html=1;entryX=0;entryY=0.5;entryDx=0;entryDy=0;" edge="1" parent="WIyWlLk6GJQsqaUBKTNV-1" source="KoWsG1J0fxgt0dFN-7at-28" target="KoWsG1J0fxgt0dFN-7at-21">
          <mxGeometry relative="1" as="geometry" />
        </mxCell>
        <mxCell id="KoWsG1J0fxgt0dFN-7at-45" value="" style="edgeStyle=orthogonalEdgeStyle;rounded=0;orthogonalLoop=1;jettySize=auto;html=1;" edge="1" parent="WIyWlLk6GJQsqaUBKTNV-1" source="KoWsG1J0fxgt0dFN-7at-34" target="KoWsG1J0fxgt0dFN-7at-37">
          <mxGeometry relative="1" as="geometry" />
        </mxCell>
        <mxCell id="KoWsG1J0fxgt0dFN-7at-34" value="Embalagem" style="rounded=0;whiteSpace=wrap;html=1;" vertex="1" parent="WIyWlLk6GJQsqaUBKTNV-1">
          <mxGeometry x="581.5" y="630" width="170" height="45" as="geometry" />
        </mxCell>
        <mxCell id="KoWsG1J0fxgt0dFN-7at-50" value="" style="edgeStyle=orthogonalEdgeStyle;rounded=0;orthogonalLoop=1;jettySize=auto;html=1;" edge="1" parent="WIyWlLk6GJQsqaUBKTNV-1" source="KoWsG1J0fxgt0dFN-7at-36" target="KoWsG1J0fxgt0dFN-7at-34">
          <mxGeometry relative="1" as="geometry" />
        </mxCell>
        <mxCell id="KoWsG1J0fxgt0dFN-7at-36" value="Troca de caixa" style="rounded=0;whiteSpace=wrap;html=1;" vertex="1" parent="WIyWlLk6GJQsqaUBKTNV-1">
          <mxGeometry x="581.5" y="480" width="170" height="45" as="geometry" />
        </mxCell>
        <mxCell id="KoWsG1J0fxgt0dFN-7at-47" value="" style="edgeStyle=orthogonalEdgeStyle;rounded=0;orthogonalLoop=1;jettySize=auto;html=1;" edge="1" parent="WIyWlLk6GJQsqaUBKTNV-1" source="KoWsG1J0fxgt0dFN-7at-37" target="KoWsG1J0fxgt0dFN-7at-46">
          <mxGeometry relative="1" as="geometry" />
        </mxCell>
        <mxCell id="KoWsG1J0fxgt0dFN-7at-37" value="Controle de Qualidade (CQ)" style="rounded=0;whiteSpace=wrap;html=1;" vertex="1" parent="WIyWlLk6GJQsqaUBKTNV-1">
          <mxGeometry x="361.5" y="630" width="170" height="45" as="geometry" />
        </mxCell>
        <mxCell id="KoWsG1J0fxgt0dFN-7at-39" value="" style="edgeStyle=orthogonalEdgeStyle;rounded=0;orthogonalLoop=1;jettySize=auto;html=1;exitX=0.5;exitY=1;exitDx=0;exitDy=0;" edge="1" parent="WIyWlLk6GJQsqaUBKTNV-1" source="KoWsG1J0fxgt0dFN-7at-15" target="KoWsG1J0fxgt0dFN-7at-28">
          <mxGeometry relative="1" as="geometry">
            <mxPoint x="390" y="575" as="targetPoint" />
            <mxPoint x="439" y="335" as="sourcePoint" />
            <Array as="points" />
          </mxGeometry>
        </mxCell>
        <mxCell id="KoWsG1J0fxgt0dFN-7at-28" value="Conversão&lt;br&gt;(Defini a aliança a ser usada)" style="rounded=1;whiteSpace=wrap;html=1;arcSize=0;" vertex="1" parent="WIyWlLk6GJQsqaUBKTNV-1">
          <mxGeometry x="145" y="285" width="170" height="50" as="geometry" />
        </mxCell>
        <mxCell id="KoWsG1J0fxgt0dFN-7at-46" value="Expedição" style="rounded=1;whiteSpace=wrap;html=1;" vertex="1" parent="WIyWlLk6GJQsqaUBKTNV-1">
          <mxGeometry x="374" y="780" width="145" height="45" as="geometry" />
        </mxCell>
        <mxCell id="KoWsG1J0fxgt0dFN-7at-49" value="" style="edgeStyle=orthogonalEdgeStyle;rounded=0;orthogonalLoop=1;jettySize=auto;html=1;" edge="1" parent="WIyWlLk6GJQsqaUBKTNV-1" source="KoWsG1J0fxgt0dFN-7at-35" target="KoWsG1J0fxgt0dFN-7at-36">
          <mxGeometry relative="1" as="geometry" />
        </mxCell>
        <mxCell id="KoWsG1J0fxgt0dFN-7at-35" value="Produção&lt;br&gt;(Ag. Embalagem)" style="rounded=0;whiteSpace=wrap;html=1;" vertex="1" parent="WIyWlLk6GJQsqaUBKTNV-1">
          <mxGeometry x="365.5" y="495" width="170" height="50" as="geometry" />
        </mxCell>
        <mxCell id="KoWsG1J0fxgt0dFN-7at-52" value="&lt;font style=&quot;font-size: 17px;&quot;&gt;&lt;b&gt;PROCESSO NEW GOOD&lt;/b&gt;&lt;/font&gt;" style="text;html=1;align=center;verticalAlign=middle;resizable=0;points=[];autosize=1;strokeColor=none;fillColor=none;" vertex="1" parent="WIyWlLk6GJQsqaUBKTNV-1">
          <mxGeometry x="30" y="20" width="220" height="30" as="geometry" />
        </mxCell>
        <mxCell id="KoWsG1J0fxgt0dFN-7at-55" value="&lt;h1&gt;&lt;span style=&quot;background-color: initial;&quot;&gt;Pontos a ser considerado&lt;br&gt;&lt;/span&gt;&lt;span style=&quot;font-size: 12px; font-weight: 400;&quot;&gt;* Conseguimos deixar o sistema parametrizado para ambos os tipos de recebimento, tanto para embalar com a Aliança como White Label?&lt;br&gt;* Conseguimos deixar a conversão após Ag.Embalagem como New Good.&lt;br&gt;* Ao estornar no estoque o parametro deve ser definido como Ag. Embalagem.&lt;br&gt;&lt;br&gt;&lt;/span&gt;&lt;/h1&gt;" style="text;html=1;strokeColor=none;fillColor=none;spacing=5;spacingTop=-20;whiteSpace=wrap;overflow=hidden;rounded=0;" vertex="1" parent="WIyWlLk6GJQsqaUBKTNV-1">
          <mxGeometry x="20" y="850" width="385" height="220" as="geometry" />
        </mxCell>
        <mxCell id="KoWsG1J0fxgt0dFN-7at-56" value="&lt;h1 style=&quot;font-size: 18px;&quot;&gt;&lt;font style=&quot;font-size: 18px;&quot;&gt;Riscos&lt;br&gt;&lt;/font&gt;&lt;/h1&gt;&lt;h1 style=&quot;font-size: 13px;&quot;&gt;&lt;span style=&quot;font-weight: 400;&quot;&gt;* Perda de historico no sistema.&lt;br&gt;&lt;br&gt;*Mistura de embalagem ao sair do estoque e chegar na produção.&amp;nbsp;&lt;br&gt;&lt;br&gt;&lt;/span&gt;&lt;/h1&gt;" style="text;html=1;strokeColor=none;fillColor=none;spacing=5;spacingTop=-20;whiteSpace=wrap;overflow=hidden;rounded=0;" vertex="1" parent="WIyWlLk6GJQsqaUBKTNV-1">
          <mxGeometry x="18" y="1080" width="476" height="120" as="geometry" />
        </mxCell>
        <mxCell id="KoWsG1J0fxgt0dFN-7at-57" value="&lt;font style=&quot;font-size: 17px;&quot;&gt;&lt;b&gt;PROCESSO REVERSA&lt;/b&gt;&lt;/font&gt;" style="text;html=1;align=center;verticalAlign=middle;resizable=0;points=[];autosize=1;strokeColor=none;fillColor=none;" vertex="1" parent="WIyWlLk6GJQsqaUBKTNV-1">
          <mxGeometry x="15" y="1210" width="210" height="30" as="geometry" />
        </mxCell>
        <mxCell id="KoWsG1J0fxgt0dFN-7at-59" value="" style="edgeStyle=orthogonalEdgeStyle;rounded=0;orthogonalLoop=1;jettySize=auto;html=1;" edge="1" parent="WIyWlLk6GJQsqaUBKTNV-1" target="KoWsG1J0fxgt0dFN-7at-62">
          <mxGeometry relative="1" as="geometry">
            <mxPoint x="170" y="1320" as="sourcePoint" />
          </mxGeometry>
        </mxCell>
        <mxCell id="KoWsG1J0fxgt0dFN-7at-60" value="Reversa&lt;br&gt;White Label" style="rounded=1;whiteSpace=wrap;html=1;fontSize=12;glass=0;strokeWidth=1;shadow=0;" vertex="1" parent="WIyWlLk6GJQsqaUBKTNV-1">
          <mxGeometry x="50" y="1300" width="120" height="40" as="geometry" />
        </mxCell>
        <mxCell id="KoWsG1J0fxgt0dFN-7at-61" value="" style="edgeStyle=orthogonalEdgeStyle;rounded=0;orthogonalLoop=1;jettySize=auto;html=1;" edge="1" parent="WIyWlLk6GJQsqaUBKTNV-1" source="KoWsG1J0fxgt0dFN-7at-62" target="KoWsG1J0fxgt0dFN-7at-64">
          <mxGeometry relative="1" as="geometry" />
        </mxCell>
        <mxCell id="KoWsG1J0fxgt0dFN-7at-62" value="Bip conversão PA" style="rounded=1;whiteSpace=wrap;html=1;arcSize=0;" vertex="1" parent="WIyWlLk6GJQsqaUBKTNV-1">
          <mxGeometry x="220" y="1295" width="120" height="50" as="geometry" />
        </mxCell>
        <mxCell id="KoWsG1J0fxgt0dFN-7at-63" value="" style="edgeStyle=orthogonalEdgeStyle;rounded=0;orthogonalLoop=1;jettySize=auto;html=1;" edge="1" parent="WIyWlLk6GJQsqaUBKTNV-1" source="KoWsG1J0fxgt0dFN-7at-64" target="KoWsG1J0fxgt0dFN-7at-69">
          <mxGeometry relative="1" as="geometry" />
        </mxCell>
        <mxCell id="KoWsG1J0fxgt0dFN-7at-64" value="Transporte" style="rounded=1;whiteSpace=wrap;html=1;arcSize=0;" vertex="1" parent="WIyWlLk6GJQsqaUBKTNV-1">
          <mxGeometry x="374" y="1295" width="120" height="50" as="geometry" />
        </mxCell>
        <mxCell id="KoWsG1J0fxgt0dFN-7at-89" style="edgeStyle=orthogonalEdgeStyle;rounded=0;orthogonalLoop=1;jettySize=auto;html=1;entryX=0.5;entryY=0;entryDx=0;entryDy=0;" edge="1" parent="WIyWlLk6GJQsqaUBKTNV-1" source="KoWsG1J0fxgt0dFN-7at-69" target="KoWsG1J0fxgt0dFN-7at-88">
          <mxGeometry relative="1" as="geometry" />
        </mxCell>
        <mxCell id="KoWsG1J0fxgt0dFN-7at-90" value="NÃO" style="edgeLabel;html=1;align=center;verticalAlign=middle;resizable=0;points=[];" vertex="1" connectable="0" parent="KoWsG1J0fxgt0dFN-7at-89">
          <mxGeometry x="-0.6552" y="-2" relative="1" as="geometry">
            <mxPoint as="offset" />
          </mxGeometry>
        </mxCell>
        <mxCell id="KoWsG1J0fxgt0dFN-7at-120" style="edgeStyle=orthogonalEdgeStyle;rounded=0;orthogonalLoop=1;jettySize=auto;html=1;entryX=0.5;entryY=0;entryDx=0;entryDy=0;" edge="1" parent="WIyWlLk6GJQsqaUBKTNV-1" source="KoWsG1J0fxgt0dFN-7at-69" target="KoWsG1J0fxgt0dFN-7at-119">
          <mxGeometry relative="1" as="geometry" />
        </mxCell>
        <mxCell id="KoWsG1J0fxgt0dFN-7at-69" value="Recebimento CD&lt;br&gt;É produtivo?" style="rhombus;whiteSpace=wrap;html=1;" vertex="1" parent="WIyWlLk6GJQsqaUBKTNV-1">
          <mxGeometry x="540" y="1265" width="136" height="110" as="geometry" />
        </mxCell>
        <mxCell id="KoWsG1J0fxgt0dFN-7at-70" value="Triagem" style="rounded=1;whiteSpace=wrap;html=1;arcSize=0;" vertex="1" parent="WIyWlLk6GJQsqaUBKTNV-1">
          <mxGeometry x="294" y="1465" width="120" height="50" as="geometry" />
        </mxCell>
        <mxCell id="KoWsG1J0fxgt0dFN-7at-73" style="edgeStyle=orthogonalEdgeStyle;rounded=0;orthogonalLoop=1;jettySize=auto;html=1;entryX=0;entryY=0.5;entryDx=0;entryDy=0;" edge="1" parent="WIyWlLk6GJQsqaUBKTNV-1" source="KoWsG1J0fxgt0dFN-7at-81" target="KoWsG1J0fxgt0dFN-7at-85">
          <mxGeometry relative="1" as="geometry">
            <mxPoint x="126.5" y="1700" as="targetPoint" />
          </mxGeometry>
        </mxCell>
        <mxCell id="KoWsG1J0fxgt0dFN-7at-80" value="" style="edgeStyle=orthogonalEdgeStyle;rounded=0;orthogonalLoop=1;jettySize=auto;html=1;exitX=0.5;exitY=1;exitDx=0;exitDy=0;" edge="1" parent="WIyWlLk6GJQsqaUBKTNV-1" source="KoWsG1J0fxgt0dFN-7at-70" target="KoWsG1J0fxgt0dFN-7at-81">
          <mxGeometry relative="1" as="geometry">
            <mxPoint x="390" y="1755" as="targetPoint" />
            <mxPoint x="439" y="1515" as="sourcePoint" />
            <Array as="points" />
          </mxGeometry>
        </mxCell>
        <mxCell id="KoWsG1J0fxgt0dFN-7at-81" value="Embalagem White label&lt;br&gt;(Caixa Parda)" style="rounded=1;whiteSpace=wrap;html=1;arcSize=0;" vertex="1" parent="WIyWlLk6GJQsqaUBKTNV-1">
          <mxGeometry x="50" y="1465" width="170" height="50" as="geometry" />
        </mxCell>
        <mxCell id="KoWsG1J0fxgt0dFN-7at-84" value="Estoque&lt;br&gt;(Acondicionamento)" style="rounded=0;whiteSpace=wrap;html=1;" vertex="1" parent="WIyWlLk6GJQsqaUBKTNV-1">
          <mxGeometry x="365.5" y="1675" width="170" height="50" as="geometry" />
        </mxCell>
        <mxCell id="KoWsG1J0fxgt0dFN-7at-87" style="edgeStyle=orthogonalEdgeStyle;rounded=0;orthogonalLoop=1;jettySize=auto;html=1;entryX=0;entryY=0.5;entryDx=0;entryDy=0;" edge="1" parent="WIyWlLk6GJQsqaUBKTNV-1" source="KoWsG1J0fxgt0dFN-7at-85" target="KoWsG1J0fxgt0dFN-7at-84">
          <mxGeometry relative="1" as="geometry" />
        </mxCell>
        <mxCell id="KoWsG1J0fxgt0dFN-7at-91" value="NAO" style="edgeLabel;html=1;align=center;verticalAlign=middle;resizable=0;points=[];" vertex="1" connectable="0" parent="KoWsG1J0fxgt0dFN-7at-87">
          <mxGeometry x="-0.6923" y="1" relative="1" as="geometry">
            <mxPoint as="offset" />
          </mxGeometry>
        </mxCell>
        <mxCell id="KoWsG1J0fxgt0dFN-7at-93" value="" style="edgeStyle=orthogonalEdgeStyle;rounded=0;orthogonalLoop=1;jettySize=auto;html=1;" edge="1" parent="WIyWlLk6GJQsqaUBKTNV-1" source="KoWsG1J0fxgt0dFN-7at-85" target="KoWsG1J0fxgt0dFN-7at-92">
          <mxGeometry relative="1" as="geometry" />
        </mxCell>
        <mxCell id="KoWsG1J0fxgt0dFN-7at-94" value="SIM" style="edgeLabel;html=1;align=center;verticalAlign=middle;resizable=0;points=[];" vertex="1" connectable="0" parent="KoWsG1J0fxgt0dFN-7at-93">
          <mxGeometry x="-0.0958" y="3" relative="1" as="geometry">
            <mxPoint as="offset" />
          </mxGeometry>
        </mxCell>
        <mxCell id="KoWsG1J0fxgt0dFN-7at-85" value="Tem requisição de expedição?" style="rhombus;whiteSpace=wrap;html=1;" vertex="1" parent="WIyWlLk6GJQsqaUBKTNV-1">
          <mxGeometry x="150.75" y="1600" width="139.25" height="130" as="geometry" />
        </mxCell>
        <mxCell id="KoWsG1J0fxgt0dFN-7at-88" value="Seguir fluxo improdutivo" style="rounded=0;whiteSpace=wrap;html=1;" vertex="1" parent="WIyWlLk6GJQsqaUBKTNV-1">
          <mxGeometry x="690" y="1420" width="120" height="60" as="geometry" />
        </mxCell>
        <mxCell id="KoWsG1J0fxgt0dFN-7at-92" value="&lt;font style=&quot;font-size: 17px;&quot;&gt;&lt;b&gt;?&lt;/b&gt;&lt;/font&gt;&lt;br&gt;Como será realizado?&lt;br&gt;&lt;br&gt;Teremos que converter antes de embalar?&lt;br&gt;&lt;br&gt;Volta processo para triagem para inserção label?&lt;br&gt;&lt;br&gt;Vai embalar em caixas personalizadas" style="whiteSpace=wrap;html=1;" vertex="1" parent="WIyWlLk6GJQsqaUBKTNV-1">
          <mxGeometry x="110" y="1790" width="170.38" height="260" as="geometry" />
        </mxCell>
        <mxCell id="KoWsG1J0fxgt0dFN-7at-95" value="&lt;font style=&quot;font-size: 17px;&quot;&gt;&lt;b&gt;PROCESSO CAÇA POS&lt;/b&gt;&lt;/font&gt;" style="text;html=1;align=center;verticalAlign=middle;resizable=0;points=[];autosize=1;strokeColor=none;fillColor=none;" vertex="1" parent="WIyWlLk6GJQsqaUBKTNV-1">
          <mxGeometry x="15" y="2370" width="210" height="30" as="geometry" />
        </mxCell>
        <mxCell id="KoWsG1J0fxgt0dFN-7at-96" value="" style="edgeStyle=orthogonalEdgeStyle;rounded=0;orthogonalLoop=1;jettySize=auto;html=1;" edge="1" parent="WIyWlLk6GJQsqaUBKTNV-1" target="KoWsG1J0fxgt0dFN-7at-99">
          <mxGeometry relative="1" as="geometry">
            <mxPoint x="170" y="2480" as="sourcePoint" />
          </mxGeometry>
        </mxCell>
        <mxCell id="KoWsG1J0fxgt0dFN-7at-97" value="Caça POS" style="rounded=1;whiteSpace=wrap;html=1;fontSize=12;glass=0;strokeWidth=1;shadow=0;" vertex="1" parent="WIyWlLk6GJQsqaUBKTNV-1">
          <mxGeometry x="50" y="2460" width="120" height="40" as="geometry" />
        </mxCell>
        <mxCell id="KoWsG1J0fxgt0dFN-7at-98" value="" style="edgeStyle=orthogonalEdgeStyle;rounded=0;orthogonalLoop=1;jettySize=auto;html=1;" edge="1" parent="WIyWlLk6GJQsqaUBKTNV-1" source="KoWsG1J0fxgt0dFN-7at-99" target="KoWsG1J0fxgt0dFN-7at-101">
          <mxGeometry relative="1" as="geometry" />
        </mxCell>
        <mxCell id="KoWsG1J0fxgt0dFN-7at-99" value="Recebe White Label" style="rounded=1;whiteSpace=wrap;html=1;arcSize=0;" vertex="1" parent="WIyWlLk6GJQsqaUBKTNV-1">
          <mxGeometry x="220" y="2455" width="120" height="50" as="geometry" />
        </mxCell>
        <mxCell id="KoWsG1J0fxgt0dFN-7at-100" value="" style="edgeStyle=orthogonalEdgeStyle;rounded=0;orthogonalLoop=1;jettySize=auto;html=1;" edge="1" parent="WIyWlLk6GJQsqaUBKTNV-1" source="KoWsG1J0fxgt0dFN-7at-101" target="KoWsG1J0fxgt0dFN-7at-106">
          <mxGeometry relative="1" as="geometry" />
        </mxCell>
        <mxCell id="KoWsG1J0fxgt0dFN-7at-101" value="Aguardando triagem" style="rounded=1;whiteSpace=wrap;html=1;arcSize=0;" vertex="1" parent="WIyWlLk6GJQsqaUBKTNV-1">
          <mxGeometry x="374" y="2455" width="120" height="50" as="geometry" />
        </mxCell>
        <mxCell id="KoWsG1J0fxgt0dFN-7at-104" style="edgeStyle=orthogonalEdgeStyle;rounded=0;orthogonalLoop=1;jettySize=auto;html=1;entryX=0.5;entryY=0;entryDx=0;entryDy=0;" edge="1" parent="WIyWlLk6GJQsqaUBKTNV-1" source="KoWsG1J0fxgt0dFN-7at-106" target="KoWsG1J0fxgt0dFN-7at-117">
          <mxGeometry relative="1" as="geometry" />
        </mxCell>
        <mxCell id="KoWsG1J0fxgt0dFN-7at-105" value="NÃO" style="edgeLabel;html=1;align=center;verticalAlign=middle;resizable=0;points=[];" vertex="1" connectable="0" parent="KoWsG1J0fxgt0dFN-7at-104">
          <mxGeometry x="-0.6552" y="-2" relative="1" as="geometry">
            <mxPoint as="offset" />
          </mxGeometry>
        </mxCell>
        <mxCell id="KoWsG1J0fxgt0dFN-7at-131" style="edgeStyle=orthogonalEdgeStyle;rounded=0;orthogonalLoop=1;jettySize=auto;html=1;" edge="1" parent="WIyWlLk6GJQsqaUBKTNV-1" source="KoWsG1J0fxgt0dFN-7at-106" target="KoWsG1J0fxgt0dFN-7at-126">
          <mxGeometry relative="1" as="geometry" />
        </mxCell>
        <mxCell id="KoWsG1J0fxgt0dFN-7at-106" value="É produtivo?" style="rhombus;whiteSpace=wrap;html=1;" vertex="1" parent="WIyWlLk6GJQsqaUBKTNV-1">
          <mxGeometry x="540" y="2425" width="136" height="110" as="geometry" />
        </mxCell>
        <mxCell id="KoWsG1J0fxgt0dFN-7at-107" value="Triagem" style="rounded=1;whiteSpace=wrap;html=1;arcSize=0;" vertex="1" parent="WIyWlLk6GJQsqaUBKTNV-1">
          <mxGeometry x="245.5" y="2610" width="120" height="50" as="geometry" />
        </mxCell>
        <mxCell id="KoWsG1J0fxgt0dFN-7at-108" style="edgeStyle=orthogonalEdgeStyle;rounded=0;orthogonalLoop=1;jettySize=auto;html=1;entryX=0;entryY=0.5;entryDx=0;entryDy=0;" edge="1" parent="WIyWlLk6GJQsqaUBKTNV-1" source="KoWsG1J0fxgt0dFN-7at-110" target="KoWsG1J0fxgt0dFN-7at-116">
          <mxGeometry relative="1" as="geometry">
            <mxPoint x="126.5" y="2860" as="targetPoint" />
          </mxGeometry>
        </mxCell>
        <mxCell id="KoWsG1J0fxgt0dFN-7at-109" value="" style="edgeStyle=orthogonalEdgeStyle;rounded=0;orthogonalLoop=1;jettySize=auto;html=1;exitX=0.5;exitY=1;exitDx=0;exitDy=0;" edge="1" parent="WIyWlLk6GJQsqaUBKTNV-1" source="KoWsG1J0fxgt0dFN-7at-107" target="KoWsG1J0fxgt0dFN-7at-110">
          <mxGeometry relative="1" as="geometry">
            <mxPoint x="390" y="2915" as="targetPoint" />
            <mxPoint x="439" y="2675" as="sourcePoint" />
            <Array as="points" />
          </mxGeometry>
        </mxCell>
        <mxCell id="KoWsG1J0fxgt0dFN-7at-110" value="Embalagem White label&lt;br&gt;(Caixa Parda)" style="rounded=1;whiteSpace=wrap;html=1;arcSize=0;" vertex="1" parent="WIyWlLk6GJQsqaUBKTNV-1">
          <mxGeometry x="35" y="2610" width="170" height="50" as="geometry" />
        </mxCell>
        <mxCell id="KoWsG1J0fxgt0dFN-7at-111" value="Estoque&lt;br&gt;(Acondicionamento)" style="rounded=0;whiteSpace=wrap;html=1;" vertex="1" parent="WIyWlLk6GJQsqaUBKTNV-1">
          <mxGeometry x="365.5" y="2835" width="170" height="50" as="geometry" />
        </mxCell>
        <mxCell id="KoWsG1J0fxgt0dFN-7at-112" style="edgeStyle=orthogonalEdgeStyle;rounded=0;orthogonalLoop=1;jettySize=auto;html=1;entryX=0;entryY=0.5;entryDx=0;entryDy=0;" edge="1" parent="WIyWlLk6GJQsqaUBKTNV-1" source="KoWsG1J0fxgt0dFN-7at-116" target="KoWsG1J0fxgt0dFN-7at-111">
          <mxGeometry relative="1" as="geometry" />
        </mxCell>
        <mxCell id="KoWsG1J0fxgt0dFN-7at-113" value="NAO" style="edgeLabel;html=1;align=center;verticalAlign=middle;resizable=0;points=[];" vertex="1" connectable="0" parent="KoWsG1J0fxgt0dFN-7at-112">
          <mxGeometry x="-0.6923" y="1" relative="1" as="geometry">
            <mxPoint as="offset" />
          </mxGeometry>
        </mxCell>
        <mxCell id="KoWsG1J0fxgt0dFN-7at-114" value="" style="edgeStyle=orthogonalEdgeStyle;rounded=0;orthogonalLoop=1;jettySize=auto;html=1;" edge="1" parent="WIyWlLk6GJQsqaUBKTNV-1" source="KoWsG1J0fxgt0dFN-7at-116" target="KoWsG1J0fxgt0dFN-7at-118">
          <mxGeometry relative="1" as="geometry" />
        </mxCell>
        <mxCell id="KoWsG1J0fxgt0dFN-7at-115" value="SIM" style="edgeLabel;html=1;align=center;verticalAlign=middle;resizable=0;points=[];" vertex="1" connectable="0" parent="KoWsG1J0fxgt0dFN-7at-114">
          <mxGeometry x="-0.0958" y="3" relative="1" as="geometry">
            <mxPoint as="offset" />
          </mxGeometry>
        </mxCell>
        <mxCell id="KoWsG1J0fxgt0dFN-7at-116" value="Tem requisição de expedição?" style="rhombus;whiteSpace=wrap;html=1;" vertex="1" parent="WIyWlLk6GJQsqaUBKTNV-1">
          <mxGeometry x="150.75" y="2760" width="139.25" height="130" as="geometry" />
        </mxCell>
        <mxCell id="KoWsG1J0fxgt0dFN-7at-117" value="Seguir fluxo improdutivo" style="rounded=0;whiteSpace=wrap;html=1;" vertex="1" parent="WIyWlLk6GJQsqaUBKTNV-1">
          <mxGeometry x="690" y="2580" width="120" height="60" as="geometry" />
        </mxCell>
        <mxCell id="KoWsG1J0fxgt0dFN-7at-118" value="&lt;font style=&quot;font-size: 17px;&quot;&gt;&lt;b&gt;?&lt;/b&gt;&lt;/font&gt;&lt;br&gt;Como será realizado?&lt;br&gt;&lt;br&gt;Teremos que converter antes de embalar?&lt;br&gt;&lt;br&gt;Volta processo para triagem para inserção label?&lt;br&gt;&lt;br&gt;Vai embalar em caixas personalizadas" style="whiteSpace=wrap;html=1;" vertex="1" parent="WIyWlLk6GJQsqaUBKTNV-1">
          <mxGeometry x="110" y="2950" width="170.38" height="260" as="geometry" />
        </mxCell>
        <mxCell id="KoWsG1J0fxgt0dFN-7at-123" style="edgeStyle=orthogonalEdgeStyle;rounded=0;orthogonalLoop=1;jettySize=auto;html=1;entryX=1;entryY=0.5;entryDx=0;entryDy=0;" edge="1" parent="WIyWlLk6GJQsqaUBKTNV-1" source="KoWsG1J0fxgt0dFN-7at-119" target="KoWsG1J0fxgt0dFN-7at-70">
          <mxGeometry relative="1" as="geometry" />
        </mxCell>
        <mxCell id="KoWsG1J0fxgt0dFN-7at-124" value="SIM" style="edgeLabel;html=1;align=center;verticalAlign=middle;resizable=0;points=[];" vertex="1" connectable="0" parent="KoWsG1J0fxgt0dFN-7at-123">
          <mxGeometry x="-0.5493" y="-4" relative="1" as="geometry">
            <mxPoint as="offset" />
          </mxGeometry>
        </mxCell>
        <mxCell id="KoWsG1J0fxgt0dFN-7at-119" value="É menor que 3 anos?" style="rhombus;whiteSpace=wrap;html=1;" vertex="1" parent="WIyWlLk6GJQsqaUBKTNV-1">
          <mxGeometry x="540" y="1465" width="114.5" height="110" as="geometry" />
        </mxCell>
        <mxCell id="KoWsG1J0fxgt0dFN-7at-121" style="edgeStyle=orthogonalEdgeStyle;rounded=0;orthogonalLoop=1;jettySize=auto;html=1;entryX=0.608;entryY=1.017;entryDx=0;entryDy=0;entryPerimeter=0;" edge="1" parent="WIyWlLk6GJQsqaUBKTNV-1" source="KoWsG1J0fxgt0dFN-7at-119" target="KoWsG1J0fxgt0dFN-7at-88">
          <mxGeometry relative="1" as="geometry" />
        </mxCell>
        <mxCell id="KoWsG1J0fxgt0dFN-7at-122" value="NAO" style="edgeLabel;html=1;align=center;verticalAlign=middle;resizable=0;points=[];" vertex="1" connectable="0" parent="KoWsG1J0fxgt0dFN-7at-121">
          <mxGeometry x="-0.1517" y="-1" relative="1" as="geometry">
            <mxPoint as="offset" />
          </mxGeometry>
        </mxCell>
        <mxCell id="KoWsG1J0fxgt0dFN-7at-127" style="edgeStyle=orthogonalEdgeStyle;rounded=0;orthogonalLoop=1;jettySize=auto;html=1;entryX=1;entryY=0.5;entryDx=0;entryDy=0;" edge="1" parent="WIyWlLk6GJQsqaUBKTNV-1" source="KoWsG1J0fxgt0dFN-7at-126" target="KoWsG1J0fxgt0dFN-7at-107">
          <mxGeometry relative="1" as="geometry" />
        </mxCell>
        <mxCell id="KoWsG1J0fxgt0dFN-7at-128" value="SIM" style="edgeLabel;html=1;align=center;verticalAlign=middle;resizable=0;points=[];" vertex="1" connectable="0" parent="KoWsG1J0fxgt0dFN-7at-127">
          <mxGeometry x="0.0239" y="3" relative="1" as="geometry">
            <mxPoint as="offset" />
          </mxGeometry>
        </mxCell>
        <mxCell id="KoWsG1J0fxgt0dFN-7at-129" style="edgeStyle=orthogonalEdgeStyle;rounded=0;orthogonalLoop=1;jettySize=auto;html=1;entryX=0.5;entryY=1;entryDx=0;entryDy=0;" edge="1" parent="WIyWlLk6GJQsqaUBKTNV-1" source="KoWsG1J0fxgt0dFN-7at-126" target="KoWsG1J0fxgt0dFN-7at-117">
          <mxGeometry relative="1" as="geometry" />
        </mxCell>
        <mxCell id="KoWsG1J0fxgt0dFN-7at-130" value="NAO" style="edgeLabel;html=1;align=center;verticalAlign=middle;resizable=0;points=[];" vertex="1" connectable="0" parent="KoWsG1J0fxgt0dFN-7at-129">
          <mxGeometry x="0.171" relative="1" as="geometry">
            <mxPoint as="offset" />
          </mxGeometry>
        </mxCell>
        <mxCell id="KoWsG1J0fxgt0dFN-7at-126" value="É menor que 3 anos?" style="rhombus;whiteSpace=wrap;html=1;" vertex="1" parent="WIyWlLk6GJQsqaUBKTNV-1">
          <mxGeometry x="450" y="2590" width="114.5" height="110" as="geometry" />
        </mxCell>
      </root>
    </mxGraphModel>
  </diagram>
</mxfile>
